<svg width="24" height="24" viewBox="0 0 24 24" fill="none" xmlns="http://www.w3.org/2000/svg">
<g id="bi:telegram">
<path id="Vector" d="M21 11.9995C21 14.3865 20.0518 16.6756 18.364 18.3635C16.6761 20.0513 14.3869 20.9995 12 20.9995C9.61305 20.9995 7.32387 20.0513 5.63604 18.3635C3.94821 16.6756 3 14.3865 3 11.9995C3 9.61256 3.94821 7.32338 5.63604 5.63555C7.32387 3.94772 9.61305 2.99951 12 2.99951C14.3869 2.99951 16.6761 3.94772 18.364 5.63555C20.0518 7.32338 21 9.61256 21 11.9995ZM12.3229 9.64376C11.4476 10.0083 9.69712 10.762 7.07363 11.905C6.64838 12.0738 6.4245 12.2403 6.40425 12.4023C6.3705 12.6756 6.71363 12.7836 7.1805 12.931L7.37738 12.9929C7.83638 13.1425 8.45512 13.3169 8.77575 13.3236C9.06825 13.3304 9.39337 13.2111 9.75225 12.9636C12.2036 11.3088 13.4693 10.4729 13.548 10.4549C13.6043 10.4414 13.683 10.4256 13.7347 10.4729C13.7876 10.519 13.782 10.6079 13.7764 10.6315C13.7426 10.7766 12.396 12.0276 11.6996 12.6756C11.4825 12.8781 11.3284 13.021 11.2969 13.0536C11.2275 13.1245 11.157 13.1943 11.0854 13.2629C10.6579 13.6746 10.3384 13.9829 11.1023 14.4869C11.4701 14.7299 11.7649 14.929 12.0585 15.1293C12.378 15.3475 12.6975 15.5646 13.1115 15.8369C13.2161 15.9044 13.3174 15.9775 13.4153 16.0473C13.7876 16.3128 14.124 16.5513 14.5369 16.513C14.7776 16.4905 15.0262 16.2655 15.1523 15.5905C15.4504 13.9964 16.0365 10.5438 16.1715 9.12064C16.1797 9.00234 16.1748 8.88348 16.1569 8.76626C16.1463 8.67167 16.1005 8.58453 16.0286 8.52214C15.9263 8.45148 15.8042 8.41487 15.6799 8.41751C15.3424 8.42314 14.8215 8.60426 12.3229 9.64376Z" fill="black"/>
</g>
</svg>
