<svg width="25" height="24" viewBox="0 0 25 24" fill="none" xmlns="http://www.w3.org/2000/svg">
<g id="discord_icon">
<path id="Vector" d="M24.9312 12C24.9312 5.37258 19.5586 0 12.9312 0C6.30374 0 0.931152 5.37258 0.931152 12C0.931152 18.6274 6.30374 24 12.9312 24C19.5586 24 24.9312 18.6274 24.9312 12Z" fill="#7289DA"/>
<path id="Vector_2" d="M18.9495 7.88962C17.8486 7.00887 16.5275 6.56852 15.133 6.49512L14.9128 6.71532C16.1605 7.00887 17.2615 7.59602 18.289 8.40337C17.0413 7.74282 15.6468 7.30247 14.1789 7.15567C13.7385 7.08227 13.3715 7.08227 12.9312 7.08227C12.4908 7.08227 12.1238 7.08227 11.6835 7.15567C10.2156 7.30247 8.82105 7.74282 7.57335 8.40337C8.60085 7.59602 9.7018 7.00887 10.9495 6.71532L10.7293 6.49512C9.3348 6.56852 8.0137 7.00887 6.9128 7.88962C5.6651 10.2383 5.00455 12.8805 4.93115 15.596C6.03205 16.7704 7.57335 17.5043 9.18805 17.5043C9.18805 17.5043 9.7018 16.9172 10.0688 16.4034C9.11465 16.1832 8.2339 15.6694 7.64675 14.8621C8.1605 15.1557 8.67425 15.4493 9.18805 15.6694C9.8486 15.963 10.5092 16.1098 11.1697 16.2566C11.7569 16.33 12.344 16.4034 12.9312 16.4034C13.5183 16.4034 14.1055 16.33 14.6926 16.2566C15.3532 16.1098 16.0137 15.963 16.6743 15.6694C17.1881 15.4493 17.7018 15.1557 18.2156 14.8621C17.6284 15.6694 16.7477 16.1832 15.7936 16.4034C16.1605 16.9172 16.6743 17.5043 16.6743 17.5043C18.289 17.5043 19.8303 16.7704 20.9312 15.596C20.8578 12.8805 20.1972 10.2383 18.9495 7.88962ZM10.5092 14.2749C9.7752 14.2749 9.11465 13.6144 9.11465 12.8071C9.11465 11.9997 9.7752 11.3392 10.5092 11.3392C11.2431 11.3392 11.9037 11.9997 11.9037 12.8071C11.9037 13.6144 11.2431 14.2749 10.5092 14.2749ZM15.3532 14.2749C14.6192 14.2749 13.9587 13.6144 13.9587 12.8071C13.9587 11.9997 14.6192 11.3392 15.3532 11.3392C16.0871 11.3392 16.7477 11.9997 16.7477 12.8071C16.7477 13.6144 16.0871 14.2749 15.3532 14.2749Z" fill="white"/>
</g>
</svg>
