<svg width="24" height="24" viewBox="0 0 24 24" fill="none" xmlns="http://www.w3.org/2000/svg">
<g id="fa6-brands:square-x-twitter">
<path id="Vector" d="M5.32143 2.71484C3.90313 2.71484 2.75 3.86797 2.75 5.28627V18.1434C2.75 19.5617 3.90313 20.7148 5.32143 20.7148H18.1786C19.5969 20.7148 20.75 19.5617 20.75 18.1434V5.28627C20.75 3.86797 19.5969 2.71484 18.1786 2.71484H5.32143ZM17.2585 6.08984L13.0879 10.855L17.9937 17.3398H14.1527L11.1473 13.4064L7.70402 17.3398H5.79554L10.2554 12.2412L5.55045 6.08984H9.48795L12.208 9.68583L15.35 6.08984H17.2585ZM15.7397 16.1988L8.91339 7.17065H7.77634L14.679 16.1988H15.7357H15.7397Z" fill="black"/>
</g>
</svg>
