<svg width="29" height="24" viewBox="0 0 29 24" fill="none" xmlns="http://www.w3.org/2000/svg">
<g id="gmail_icon">
<path id="Vector" d="M27.649 9.86654C27.5023 9.77292 27.3358 9.72364 27.1663 9.72364C26.9968 9.72364 26.8303 9.77292 26.6835 9.86654L14.1318 17.7066L1.58012 9.86654C1.43306 9.77274 1.26621 9.72345 1.0964 9.72363C0.926588 9.72382 0.759826 9.77348 0.612935 9.8676C0.466044 9.96172 0.344221 10.097 0.259755 10.2597C0.175289 10.4225 0.131168 10.6069 0.131844 10.7945V19.9999C0.131844 20.8486 0.437015 21.6625 0.980223 22.2627C1.52343 22.8628 2.26018 23.1999 3.02839 23.1999H25.2353C26.0035 23.1999 26.7402 22.8628 27.2834 22.2627C27.8266 21.6625 28.1318 20.8486 28.1318 19.9999V10.7999C28.1333 10.611 28.0894 10.4251 28.0046 10.2611C27.9198 10.0971 27.7971 9.96097 27.649 9.86654Z" fill="#2962FF"/>
<path id="Vector_2" d="M25.2353 0.799805H3.02839C2.26018 0.799805 1.52343 1.13695 0.980223 1.73707C0.437015 2.33718 0.131844 3.15112 0.131844 3.99981V5.99982C0.131168 6.18778 0.175461 6.37259 0.260236 6.53556C0.345012 6.69852 0.467259 6.83384 0.614601 6.92782L13.6491 15.0612C13.7958 15.1548 13.9623 15.2041 14.1318 15.2041C14.3013 15.2041 14.4678 15.1548 14.6146 15.0612L27.649 6.92782C27.7964 6.83384 27.9186 6.69852 28.0034 6.53556C28.0882 6.37259 28.1325 6.18778 28.1318 5.99982V3.99981C28.1318 3.15112 27.8266 2.33718 27.2834 1.73707C26.7402 1.13695 26.0035 0.799805 25.2353 0.799805Z" fill="#2962FF"/>
</g>
</svg>
