<svg width="24" height="24" viewBox="0 0 24 24" fill="none" xmlns="http://www.w3.org/2000/svg">
<g id="ic:baseline-tiktok">
<path id="Vector" d="M16.6002 5.81951C15.9166 5.03913 15.5399 4.03694 15.5402 2.99951H12.4502V15.3995C12.4263 16.0705 12.143 16.7061 11.6599 17.1725C11.1768 17.6388 10.5316 17.8994 9.86016 17.8995C8.44016 17.8995 7.26016 16.7395 7.26016 15.2995C7.26016 13.5795 8.92016 12.2895 10.6302 12.8195V9.65951C7.18016 9.19951 4.16016 11.8795 4.16016 15.2995C4.16016 18.6295 6.92016 20.9995 9.85016 20.9995C12.9902 20.9995 15.5402 18.4495 15.5402 15.2995V9.00951C16.7932 9.90936 18.2975 10.3922 19.8402 10.3895V7.29951C19.8402 7.29951 17.9602 7.38951 16.6002 5.81951Z" fill="black"/>
</g>
</svg>
