<svg width="25" height="24" viewBox="0 0 25 24" fill="none" xmlns="http://www.w3.org/2000/svg">
<g id="instagram_icon">
<g id="Layer 1">
<path id="Vector" d="M19.1448 0H5.91865C2.94354 0 0.531738 2.4118 0.531738 5.38691V18.6131C0.531738 21.5882 2.94354 24 5.91865 24H19.1448C22.1199 24 24.5317 21.5882 24.5317 18.6131V5.38691C24.5317 2.4118 22.1199 0 19.1448 0Z" fill="url(#paint0_linear_336_359)"/>
<g id="&#60;Group&#62;">
<path id="&#60;Compound Path&#62;" d="M8.84458 4.15625H16.3264C16.4927 4.23938 16.7421 4.23938 16.9083 4.32251C17.6379 4.44075 18.3201 4.76013 18.8781 5.24475C19.4362 5.72937 19.848 6.36003 20.0673 7.06584C20.1901 7.47258 20.2736 7.89015 20.3167 8.31281V15.6284C20.1979 16.5555 19.8555 17.4399 19.3191 18.2054C18.859 18.7386 18.2821 19.1584 17.6333 19.4324C16.9845 19.7063 16.2812 19.827 15.5782 19.7849H9.34337C8.2307 19.8389 7.13669 19.4841 6.26751 18.7874C5.73897 18.3307 5.32186 17.7592 5.0481 17.1166C4.77434 16.4739 4.65117 15.7772 4.68802 15.0797V9.26051C4.67429 8.84313 4.70213 8.42541 4.77115 8.01354C4.8551 7.16127 5.20552 6.35713 5.77262 5.71541C6.33973 5.07369 7.09466 4.62702 7.93014 4.4389L8.84458 4.15625ZM6.26751 12.0537V15.2958C6.23207 15.7087 6.2873 16.1243 6.42934 16.5136C6.57139 16.9029 6.79681 17.2564 7.08982 17.5494C7.38283 17.8424 7.73634 18.0678 8.12562 18.2099C8.51489 18.3519 8.93051 18.4071 9.34337 18.3717C11.5048 18.4548 13.6662 18.4548 15.8276 18.3717C17.7396 18.3717 18.8203 17.2079 18.9035 15.2958C18.9866 13.1344 18.9866 10.973 18.9035 8.8116C18.925 8.402 18.8602 7.99245 18.7132 7.60951C18.5663 7.22657 18.3405 6.87881 18.0504 6.58878C17.7604 6.29875 17.4126 6.07293 17.0297 5.92597C16.6468 5.77901 16.2372 5.7142 15.8276 5.73574C13.6662 5.65261 11.5048 5.65261 9.34337 5.73574C8.93051 5.7003 8.51489 5.75553 8.12562 5.89758C7.73634 6.03962 7.38283 6.26504 7.08982 6.55805C6.79681 6.85106 6.57139 7.20458 6.42934 7.59385C6.2873 7.98312 6.23207 8.39874 6.26751 8.8116V12.0537Z" fill="white"/>
<path id="&#60;Compound Path&#62;_2" d="M8.54541 12.0871C8.54761 11.0074 8.97748 9.97262 9.74092 9.20918C10.5044 8.44574 11.5392 8.01587 12.6188 8.01367C13.6925 8.03494 14.7163 8.47093 15.4757 9.23029C16.235 9.98964 16.671 11.0134 16.6923 12.0871C16.6901 13.1668 16.2602 14.2016 15.4968 14.965C14.7333 15.7285 13.6985 16.1583 12.6188 16.1605C11.5452 16.1393 10.5214 15.7033 9.76202 14.9439C9.00267 14.1846 8.56668 13.1608 8.54541 12.0871ZM12.6188 9.51003C12.1139 9.50182 11.6181 9.64457 11.1948 9.91999C10.7715 10.1954 10.4401 10.5909 10.2431 11.0559C10.046 11.5209 9.99233 12.0341 10.0888 12.5297C10.1853 13.0254 10.4277 13.481 10.7847 13.8381C11.1418 14.1952 11.5974 14.4375 12.0931 14.534C12.5888 14.6305 13.102 14.5768 13.5669 14.3797C14.0319 14.1827 14.4274 13.8513 14.7028 13.428C14.9782 13.0048 15.121 12.5089 15.1128 12.004C15.1128 11.3425 14.85 10.7082 14.3823 10.2405C13.9146 9.77279 13.2803 9.51003 12.6188 9.51003Z" fill="white"/>
<path id="&#60;Path&#62;" d="M15.7779 7.84778C15.7733 7.71552 15.7959 7.58373 15.8444 7.4606C15.8929 7.33746 15.9662 7.22563 16.0598 7.13205C16.1534 7.03848 16.2652 6.96516 16.3883 6.91667C16.5115 6.86819 16.6433 6.84556 16.7755 6.8502C17.0343 6.86771 17.278 6.97843 17.4614 7.16186C17.6449 7.34528 17.7556 7.58897 17.7731 7.84778C17.7731 8.11235 17.668 8.36609 17.4809 8.55317C17.2938 8.74025 17.0401 8.84535 16.7755 8.84535C16.5109 8.84535 16.2572 8.74025 16.0701 8.55317C15.883 8.36609 15.7779 8.11235 15.7779 7.84778Z" fill="white"/>
</g>
</g>
</g>
<defs>
<linearGradient id="paint0_linear_336_359" x1="-0.997877" y1="25.3301" x2="27.2668" y2="-2.51888" gradientUnits="userSpaceOnUse">
<stop stop-color="#FED576"/>
<stop offset="0.26" stop-color="#F47133"/>
<stop offset="0.61" stop-color="#BC3081"/>
<stop offset="1" stop-color="#4C63D2"/>
</linearGradient>
</defs>
</svg>
