<svg width="25" height="24" viewBox="0 0 25 24" fill="none" xmlns="http://www.w3.org/2000/svg">
<g id="linkedin_icon">
<g id="Layer 1">
<path id="Vector" d="M18.9451 0H5.71894C2.74383 0 0.332031 2.4118 0.332031 5.38691V18.6131C0.332031 21.5882 2.74383 24 5.71894 24H18.9451C21.9202 24 24.332 21.5882 24.332 18.6131V5.38691C24.332 2.4118 21.9202 0 18.9451 0Z" fill="#0B86CA"/>
<path id="Vector_2" d="M6.98222 9.97615H9.47616V18.0233H6.98222V9.97615ZM8.25413 5.97754C8.53986 5.97754 8.81919 6.06217 9.05688 6.22075C9.29457 6.37933 9.47997 6.60475 9.58969 6.86857C9.69941 7.1324 9.72854 7.42281 9.67339 7.70317C9.61825 7.98354 9.48131 8.24129 9.27985 8.44391C9.07838 8.64653 8.82142 8.78494 8.54138 8.84169C8.26134 8.89844 7.97077 8.87098 7.70632 8.76277C7.44186 8.65456 7.21539 8.47046 7.05545 8.23368C6.89551 7.99691 6.80928 7.71806 6.80764 7.43234C6.80655 7.24168 6.84315 7.05269 6.91535 6.87624C6.98755 6.69978 7.09393 6.53934 7.22836 6.40414C7.36278 6.26894 7.52261 6.16165 7.69865 6.08844C7.87469 6.01522 8.06347 5.97754 8.25413 5.97754Z" fill="white"/>
<path id="Vector_3" d="M11.0728 9.97594H13.4753V11.0733C13.7158 10.6629 14.0632 10.3254 14.4804 10.097C14.8977 9.86863 15.3692 9.75782 15.8445 9.77642C18.3384 9.77642 18.8455 11.4391 18.8455 13.6088V18.023H16.3516V14.1325C16.3516 13.2014 16.3516 11.996 15.0548 11.996C13.7579 11.996 13.5584 13.0102 13.5584 14.0577V18.0397H11.0645L11.0728 9.97594Z" fill="white"/>
</g>
</g>
</svg>
