<svg width="24" height="24" viewBox="0 0 24 24" fill="none" xmlns="http://www.w3.org/2000/svg">
<g id="mingcute:linkedin-fill" clip-path="url(#clip0_823_1781)">
<g id="Group">
<path id="Vector" fill-rule="evenodd" clip-rule="evenodd" d="M18 2.99951C18.7956 2.99951 19.5587 3.31558 20.1213 3.87819C20.6839 4.4408 21 5.20386 21 5.99951V17.9995C21 18.7952 20.6839 19.5582 20.1213 20.1208C19.5587 20.6834 18.7956 20.9995 18 20.9995H6C5.20435 20.9995 4.44129 20.6834 3.87868 20.1208C3.31607 19.5582 3 18.7952 3 17.9995V5.99951C3 5.20386 3.31607 4.4408 3.87868 3.87819C4.44129 3.31558 5.20435 2.99951 6 2.99951H18ZM8 9.99951C7.73478 9.99951 7.48043 10.1049 7.29289 10.2924C7.10536 10.4799 7 10.7343 7 10.9995V15.9995C7 16.2647 7.10536 16.5191 7.29289 16.7066C7.48043 16.8942 7.73478 16.9995 8 16.9995C8.26522 16.9995 8.51957 16.8942 8.70711 16.7066C8.89464 16.5191 9 16.2647 9 15.9995V10.9995C9 10.7343 8.89464 10.4799 8.70711 10.2924C8.51957 10.1049 8.26522 9.99951 8 9.99951ZM11 8.99951C10.7348 8.99951 10.4804 9.10487 10.2929 9.29241C10.1054 9.47994 10 9.7343 10 9.99951V15.9995C10 16.2647 10.1054 16.5191 10.2929 16.7066C10.4804 16.8942 10.7348 16.9995 11 16.9995C11.2652 16.9995 11.5196 16.8942 11.7071 16.7066C11.8946 16.5191 12 16.2647 12 15.9995V12.3395C12.3901 11.9151 12.8646 11.5769 13.393 11.3465C13.726 11.2045 14.227 11.1465 14.575 11.2565C14.6904 11.2858 14.7933 11.3518 14.868 11.4445C14.92 11.5145 15 11.6705 15 11.9995V15.9995C15 16.2647 15.1054 16.5191 15.2929 16.7066C15.4804 16.8942 15.7348 16.9995 16 16.9995C16.2652 16.9995 16.5196 16.8942 16.7071 16.7066C16.8946 16.5191 17 16.2647 17 15.9995V11.9995C17 11.3295 16.83 10.7335 16.476 10.2555C16.1503 9.82207 15.6944 9.50424 15.175 9.34851C14.273 9.06551 13.274 9.22251 12.607 9.50851C12.3933 9.59998 12.1852 9.70416 11.984 9.82051C11.9421 9.5901 11.8206 9.38171 11.6408 9.23168C11.461 9.08164 11.2342 8.99948 11 8.99951ZM8 6.99951C7.73478 6.99951 7.48043 7.10487 7.29289 7.29241C7.10536 7.47994 7 7.7343 7 7.99951C7 8.26473 7.10536 8.51908 7.29289 8.70662C7.48043 8.89416 7.73478 8.99951 8 8.99951C8.26522 8.99951 8.51957 8.89416 8.70711 8.70662C8.89464 8.51908 9 8.26473 9 7.99951C9 7.7343 8.89464 7.47994 8.70711 7.29241C8.51957 7.10487 8.26522 6.99951 8 6.99951Z" fill="black"/>
</g>
</g>
<defs>
<clipPath id="clip0_823_1781">
<rect width="24" height="24" fill="white"/>
</clipPath>
</defs>
</svg>
