<svg width="56" height="56" viewBox="0 0 56 56" fill="none" xmlns="http://www.w3.org/2000/svg">
<g id="ant-design:read-filled">
<path id="Vector" d="M50.75 8.80469H38.2375C35.5523 8.80469 32.9273 9.57578 30.6687 11.0305L28 12.7422L25.3313 11.0305C23.0749 9.57606 20.447 8.80325 17.7625 8.80469H5.25C4.28203 8.80469 3.5 9.58672 3.5 10.5547V41.6172C3.5 42.5852 4.28203 43.3672 5.25 43.3672H17.7625C20.4477 43.3672 23.0727 44.1383 25.3313 45.593L27.7594 47.157C27.8305 47.2008 27.9125 47.2281 27.9945 47.2281C28.0766 47.2281 28.1586 47.2063 28.2297 47.157L30.6578 45.593C32.9219 44.1383 35.5523 43.3672 38.2375 43.3672H50.75C51.718 43.3672 52.5 42.5852 52.5 41.6172V10.5547C52.5 9.58672 51.718 8.80469 50.75 8.80469ZM22.0938 30.2695C22.0938 30.4938 21.9187 30.6797 21.7055 30.6797H11.5445C11.3313 30.6797 11.1562 30.4938 11.1562 30.2695V27.8086C11.1562 27.5844 11.3313 27.3984 11.5445 27.3984H21.7C21.9133 27.3984 22.0883 27.5844 22.0883 27.8086V30.2695H22.0938ZM22.0938 22.6133C22.0938 22.8375 21.9187 23.0234 21.7055 23.0234H11.5445C11.3313 23.0234 11.1562 22.8375 11.1562 22.6133V20.1523C11.1562 19.9281 11.3313 19.7422 11.5445 19.7422H21.7C21.9133 19.7422 22.0883 19.9281 22.0883 20.1523V22.6133H22.0938ZM44.8438 30.2695C44.8438 30.4938 44.6688 30.6797 44.4555 30.6797H34.2945C34.0812 30.6797 33.9062 30.4938 33.9062 30.2695V27.8086C33.9062 27.5844 34.0812 27.3984 34.2945 27.3984H44.45C44.6633 27.3984 44.8383 27.5844 44.8383 27.8086V30.2695H44.8438ZM44.8438 22.6133C44.8438 22.8375 44.6688 23.0234 44.4555 23.0234H34.2945C34.0812 23.0234 33.9062 22.8375 33.9062 22.6133V20.1523C33.9062 19.9281 34.0812 19.7422 34.2945 19.7422H44.45C44.6633 19.7422 44.8383 19.9281 44.8383 20.1523V22.6133H44.8438Z" fill="white"/>
</g>
</svg>
