<svg width="24" height="24" viewBox="0 0 24 24" fill="none" xmlns="http://www.w3.org/2000/svg">
<g id="ri:instagram-fill">
<path id="Vector" d="M12.9252 3.00062C13.5819 2.9981 14.2387 3.0047 14.8952 3.02042L15.0698 3.02672C15.2714 3.03392 15.4703 3.04292 15.7106 3.05372C16.6681 3.09871 17.3215 3.2499 17.8948 3.47219C18.4887 3.70078 18.9891 4.01036 19.4895 4.51073C19.947 4.96035 20.3011 5.50422 20.5271 6.10454C20.7494 6.6778 20.9006 7.33207 20.9456 8.28961C20.9564 8.529 20.9654 8.72878 20.9726 8.93037L20.978 9.10496C20.994 9.7612 21.0009 10.4176 20.9987 11.074L20.9996 11.7454V12.9243C21.0018 13.5811 20.9949 14.2378 20.9789 14.8943L20.9735 15.0689C20.9663 15.2705 20.9573 15.4694 20.9465 15.7097C20.9015 16.6672 20.7485 17.3206 20.5271 17.8938C20.3018 18.4948 19.9476 19.0391 19.4895 19.4886C19.0395 19.946 18.4953 20.3001 17.8948 20.5262C17.3215 20.7485 16.6681 20.8997 15.7106 20.9447C15.4703 20.9555 15.2714 20.9645 15.0698 20.9717L14.8952 20.9771C14.2387 20.9931 13.5819 21 12.9252 20.9978L12.2538 20.9987H11.0758C10.4191 21.0009 9.76235 20.994 9.10581 20.978L8.93122 20.9726C8.71758 20.9648 8.50398 20.9558 8.29045 20.9456C7.3329 20.9006 6.67953 20.7476 6.10536 20.5262C5.50481 20.3006 4.96083 19.9465 4.51154 19.4886C4.05351 19.0388 3.69909 18.4946 3.473 17.8938C3.25071 17.3206 3.09951 16.6672 3.05452 15.7097C3.04449 15.4961 3.03549 15.2825 3.02752 15.0689L3.02302 14.8943C3.00643 14.2378 2.99893 13.5811 3.00052 12.9243V11.074C2.99801 10.4176 3.00461 9.7612 3.02032 9.10496L3.02662 8.93037C3.03382 8.72878 3.04282 8.529 3.05362 8.28961C3.09861 7.33117 3.24981 6.6787 3.4721 6.10454C3.69832 5.50393 4.05343 4.96021 4.51244 4.51163C4.96142 4.05333 5.50506 3.69859 6.10536 3.47219C6.67953 3.2499 7.332 3.09871 8.29045 3.05372L8.93122 3.02672L9.10581 3.02222C9.76204 3.00563 10.4185 2.99813 11.0749 2.99972L12.9252 3.00062ZM12.0001 7.50036C11.4038 7.49192 10.8119 7.60207 10.2586 7.8244C9.70535 8.04672 9.20178 8.3768 8.77718 8.79543C8.35258 9.21406 8.01542 9.71291 7.78529 10.263C7.55516 10.8131 7.43665 11.4034 7.43665 11.9996C7.43665 12.5959 7.55516 13.1862 7.78529 13.7363C8.01542 14.2864 8.35258 14.7852 8.77718 15.2039C9.20178 15.6225 9.70535 15.9526 10.2586 16.1749C10.8119 16.3972 11.4038 16.5074 12.0001 16.4989C13.1935 16.4989 14.338 16.0249 15.1819 15.181C16.0257 14.3371 16.4998 13.1926 16.4998 11.9992C16.4998 10.8058 16.0257 9.66126 15.1819 8.8174C14.338 7.97353 13.1935 7.50036 12.0001 7.50036ZM12.0001 9.30025C12.3587 9.29364 12.7151 9.35856 13.0483 9.49123C13.3816 9.62389 13.6851 9.82163 13.9411 10.0729C14.197 10.3242 14.4004 10.6239 14.5392 10.9547C14.6781 11.2854 14.7496 11.6405 14.7497 11.9992C14.7497 12.3579 14.6783 12.713 14.5396 13.0438C14.4009 13.3746 14.1976 13.6744 13.9417 13.9257C13.6858 14.1771 13.3824 14.3749 13.0492 14.5077C12.7159 14.6405 12.3596 14.7055 12.001 14.699C11.2849 14.699 10.5982 14.4146 10.0919 13.9083C9.58555 13.402 9.3011 12.7152 9.3011 11.9992C9.3011 11.2832 9.58555 10.5964 10.0919 10.0901C10.5982 9.5838 11.2849 9.29935 12.001 9.29935L12.0001 9.30025ZM16.7248 6.15043C16.4345 6.16206 16.1599 6.28556 15.9586 6.49509C15.7573 6.70462 15.6449 6.98391 15.6449 7.27447C15.6449 7.56503 15.7573 7.84432 15.9586 8.05385C16.1599 8.26338 16.4345 8.38688 16.7248 8.3985C17.0232 8.3985 17.3093 8.27998 17.5203 8.06902C17.7312 7.85805 17.8498 7.57192 17.8498 7.27357C17.8498 6.97522 17.7312 6.68909 17.5203 6.47812C17.3093 6.26715 17.0232 6.14864 16.7248 6.14864V6.15043Z" fill="black"/>
</g>
</svg>
