<svg width="26" height="26" viewBox="0 0 26 26" fill="none" xmlns="http://www.w3.org/2000/svg">
<g id="solar:document-linear">
<g id="Group">
<path id="Vector" d="M3.6499 10.9C3.6499 6.94045 3.6499 4.96015 4.8805 3.7306C6.11005 2.5 8.09035 2.5 12.0499 2.5H14.1499C18.1095 2.5 20.0898 2.5 21.3193 3.7306C22.5499 4.96015 22.5499 6.94045 22.5499 10.9V15.1C22.5499 19.0595 22.5499 21.0398 21.3193 22.2694C20.0898 23.5 18.1095 23.5 14.1499 23.5H12.0499C8.09035 23.5 6.11005 23.5 4.8805 22.2694C3.6499 21.0398 3.6499 19.0595 3.6499 15.1V10.9Z" stroke="white" stroke-width="1.575"/>
<path id="Vector_2" d="M8.8999 10.9H17.2999M8.8999 15.1H14.1499" stroke="white" stroke-width="1.575" stroke-linecap="round"/>
</g>
</g>
</svg>
