<svg width="25" height="24" viewBox="0 0 25 24" fill="none" xmlns="http://www.w3.org/2000/svg">
<g id="telegram_icon">
<path id="Vector" d="M24.5317 12C24.5317 5.37258 19.1592 0 12.5317 0C5.90432 0 0.531738 5.37258 0.531738 12C0.531738 18.6274 5.90432 24 12.5317 24C19.1592 24 24.5317 18.6274 24.5317 12Z" fill="url(#paint0_linear_336_379)"/>
<path id="Vector_2" d="M5.92544 11.7354C9.41509 10.1831 11.742 9.15973 12.9064 8.66523C16.2307 7.25348 16.9215 7.00823 17.3717 7.00008C17.4707 6.99838 17.6921 7.02343 17.8356 7.14223C17.9567 7.24258 17.99 7.37813 18.0059 7.47323C18.0219 7.56838 18.0417 7.78508 18.0259 7.95438C17.8458 9.88698 17.0663 14.5769 16.6697 16.7415C16.5019 17.6574 16.1715 17.9645 15.8517 17.9945C15.1565 18.0598 14.6286 17.5255 13.9554 17.0748C12.9018 16.3697 12.3066 15.9307 11.2839 15.2427C10.1021 14.4475 10.8682 14.0104 11.5418 13.2961C11.718 13.1092 14.7809 10.2647 14.8402 10.0067C14.8476 9.97443 14.8545 9.85413 14.7845 9.79063C14.7145 9.72713 14.6112 9.74883 14.5366 9.76608C14.431 9.79058 12.7479 10.9264 9.48739 13.1736C9.00964 13.5086 8.57694 13.6717 8.18924 13.6632C7.76184 13.6538 6.93969 13.4165 6.32849 13.2136C5.57884 12.9648 4.98301 12.8333 5.03489 12.4107C5.06191 12.1906 5.35875 11.9655 5.92544 11.7354Z" fill="white"/>
</g>
<defs>
<linearGradient id="paint0_linear_336_379" x1="12.5317" y1="0" x2="12.5317" y2="23.822" gradientUnits="userSpaceOnUse">
<stop stop-color="#2AABEE"/>
<stop offset="1" stop-color="#229ED9"/>
</linearGradient>
</defs>
</svg>
