<svg width="22" height="24" viewBox="0 0 22 24" fill="none" xmlns="http://www.w3.org/2000/svg">
<g id="tiktok_icon">
<path id="Vector" d="M15.8177 0.774414L11.8467 0.77554V16.7472C11.8467 18.1221 11.0042 19.3487 9.70028 19.8748C8.39639 20.401 6.91189 20.1129 5.91394 19.1406C4.91599 18.1684 4.62023 16.7206 5.16032 15.4503C5.70041 14.18 6.95936 13.361 8.37068 13.361H9.6549V9.49197H8.37068C5.36435 9.49197 2.64159 11.265 1.49112 13.9709C0.340642 16.6769 0.979225 19.8061 3.10502 21.8772C5.23082 23.9482 8.44322 24.5704 11.2207 23.4495C13.9982 22.3287 15.8177 19.6761 15.8177 16.7472V7.89092C16.8989 8.51849 18.176 8.9792 19.7468 8.9792H21.7315V5.10901H19.7468C17.5135 5.10901 16.908 4.22406 16.3778 3.10099C15.848 1.97898 15.8177 0.774414 15.8177 0.774414Z" fill="url(#paint0_linear_336_366)"/>
<path id="Vector_2" d="M15.0237 0L11.0528 0.00113371V15.9727C11.0528 17.3477 10.2102 18.5742 8.90633 19.1004C7.60244 19.6266 6.11795 19.3385 5.11999 18.3662C4.12204 17.394 3.42859 15.9462 3.96868 14.6759C4.50877 13.4056 6.18769 12.1183 7.57673 12.3616L8.86095 12.5866V8.71756H7.57673C4.5704 8.71756 1.84764 10.4906 0.69717 13.1965C-0.453303 15.9024 0.185279 19.0317 2.31108 21.1028C4.43687 23.1738 7.25014 23.3364 10.0276 22.2155C12.8051 21.0947 14.2344 18.6158 14.3706 15.6899L14.806 6.33879C15.8872 6.96637 17.3833 7.73779 18.94 7.94232L20.9375 8.20479L20.3089 6.28783L20.9375 5.53441L20.9375 4.3346H18.9528C16.7195 4.3346 16.1141 3.44965 15.5838 2.32657C15.0541 1.20456 15.0237 0 15.0237 0Z" fill="url(#paint1_linear_336_366)"/>
<path id="Vector_3" d="M15.1998 1.2002L12.2845 1.20098V17.1725C12.2845 18.5474 11.442 19.774 10.1381 20.3001C8.83423 20.8263 7.3496 20.5381 6.35166 19.5659C6.1402 19.3598 5.9624 19.1315 5.81526 18.889C5.56617 18.7456 5.33179 18.5723 5.12011 18.366C4.12217 17.3938 3.82635 15.9458 4.36643 14.6756C4.90652 13.4053 6.16549 12.5864 7.57679 12.5864H8.86086V9.91728H8.80834C5.80204 9.91728 3.07946 11.6904 1.929 14.3963C0.890962 16.8378 1.30972 19.6235 2.9629 21.6659C5.05959 23.2775 7.92009 23.6863 10.4267 22.6748C13.2042 21.554 15.0238 18.9015 15.0238 15.9726V7.11651C16.105 7.74408 17.3819 8.20464 18.9526 8.20464H20.9374V5.53432H20.1841C18.2775 5.53432 17.5582 4.88845 17.0583 4.00096C16.2805 3.64379 15.9171 3.03233 15.5838 2.32659C15.4025 1.94259 15.2829 1.55194 15.1998 1.2002Z" fill="url(#paint2_linear_336_366)"/>
<path id="Vector_4" d="M13.1244 1.66113H12.9199V2.06108H13.1244V1.66113ZM13.1244 2.66061H12.9199V3.06056H13.1244V2.66061ZM13.1244 3.66126H12.9199V4.0612H13.1244V3.66126ZM13.1244 4.66073H12.9199V5.06068H13.1244V4.66073ZM13.1244 5.66021H12.9199V6.06016H13.1244V5.66021ZM13.1244 6.66085H12.9199V7.0608H13.1244V6.66085ZM13.1244 7.66033H12.9199V8.06028H13.1244V7.66033ZM13.1244 8.6598H12.9199V9.05975H13.1244V8.6598ZM13.1244 9.66045H12.9199V10.0604H13.1244V9.66045ZM13.1244 10.6599H12.9199V11.0599H13.1244V10.6599ZM13.1244 11.6594H12.9199V12.0594H13.1244V11.6594ZM13.1244 12.66H12.9199V13.06H13.1244V12.66Z" fill="#453A4B"/>
</g>
<defs>
<linearGradient id="paint0_linear_336_366" x1="10.8839" y1="22.9983" x2="18.03" y2="7.24519" gradientUnits="userSpaceOnUse">
<stop stop-color="#F40A1B"/>
<stop offset="1" stop-color="#FF585B"/>
</linearGradient>
<linearGradient id="paint1_linear_336_366" x1="10.8843" y1="0.000919807" x2="7.75996" y2="23.0201" gradientUnits="userSpaceOnUse">
<stop stop-color="#00FDFF"/>
<stop offset="1" stop-color="#00D4ED"/>
</linearGradient>
<linearGradient id="paint2_linear_336_366" x1="15.2529" y1="-4.32701" x2="11.102" y2="24.0295" gradientUnits="userSpaceOnUse">
<stop stop-color="#BCA6AE"/>
<stop offset="1" stop-color="#322A3D"/>
</linearGradient>
</defs>
</svg>
